# xmcd
#
# Track frame offsets:
# 150
# 16926
# 30528
# 40380
# 53850
# 69483
# 82239
# 94191
# 105438
# 118278
# 131091
# 146301
# 160716
# 174450
# 185496
#
# Disc length: 2614 seconds
#
#
# Revision: 0
# Processed by: cddbd v1.5.2PL0 Copyright (c) Steve Scherf et al.
# Submitted via: FreeRIP 2.951 
#
DISCID=ca0a340f
DTITLE=Compilation Blues - Blues CD1 - Roots
DYEAR=2005
DGENRE=Blues
TTITLE0=Mudy Waters - Sad Sad Day
TTITLE1=Robert Johnson - Sweet Home Chicago
TTITLE2=Buddy Guy - First Time I Met The Blues
TTITLE3=Skip James - Devil Got My Woman
TTITLE4=Missipi Fed Mc Dowel - Good Morning Little School Girl
TTITLE5=Howlin' Wolf - I've Got A Woman
TTITLE6=Lightin' Hopkins - Lonesome Dog
TTITLE7=Arthur Crudup My Baby Left
TTITLE8=Lonnie Johnson - Blues in G.
TTITLE9=Ivory Joe Hunter - Landlord Blues
TTITLE10=Johnny Otis - Bad Luck Shadow
TTITLE11=Leroy Carr - Pap's Got Your Water On
TTITLE12=Big Joe Turner - Back Breaking Blues
TTITLE13=JB. Lenoir - Mama Talk To Your Daughter
TTITLE14=Sony Terry and Brownie Mcchee - Stranger Blues
EXTD=
EXTT0=
EXTT1=
EXTT2=
EXTT3=
EXTT4=
EXTT5=
EXTT6=
EXTT7=
EXTT8=
EXTT9=
EXTT10=
EXTT11=
EXTT12=
EXTT13=
EXTT14=
PLAYORDER=
